<svg xmlns="http://www.w3.org/2000/svg" viewBox="0 0 48 48">
  <path fill="#29B6F6" d="M24,4C12.954,4,4,12.954,4,24s8.954,20,20,20s20-8.954,20-20S35.046,4,24,4z"/>
  <path fill="#FFF" d="M33.95,15l-3.746,19.126c0,0-0.161,0.874-1.245,0.874c-0.576,0-0.873-0.274-0.873-0.274l-8.114-6.733 l-3.97-2.001l-5.095-1.355c0,0-0.907-0.262-0.907-1.012c0-0.625,0.933-0.923,0.933-0.923l21.316-8.468 c-0.001-0.001,0.651-0.235,1.101-0.234C33.667,14,34,14.125,34,14.5C34,14.75,33.95,15,33.95,15z"/>
  <path fill="#B0BEC5" d="M23,30.505l-3.426,3.374c0,0-0.149,0.115-0.348,0.12c-0.069,0.002-0.143-0.009-0.219-0.043 l-0.048-0.023c-0.841-0.369-12.504-5.21-12.504-5.21c-0.617-0.25-0.454-0.115,0.156-0.359c0.605-0.242,14.203-5.551,14.203-5.551 c0.233-0.089,0.458-0.129,0.674-0.129c0.212,0,0.416,0.041,0.609,0.121c0.19,0.079,0.352,0.189,0.484,0.325 c0.131,0.136,0.229,0.295,0.293,0.477c0.063,0.182,0.095,0.376,0.095,0.581v3.797C23.001,30.485,23,30.495,23,30.505z"/>
  <path fill="#CFD8DC" d="M29.897,18.196c-0.169-0.15-0.369-0.263-0.581-0.334c-0.212-0.071-0.438-0.101-0.666-0.085 c-0.228,0.016-0.451,0.078-0.652,0.181l-2.436,1.757c-0.19,0.137-0.346,0.307-0.462,0.502c-0.116,0.195-0.191,0.41-0.221,0.633 c-0.031,0.224-0.019,0.451,0.033,0.671c0.053,0.219,0.148,0.427,0.281,0.611l2.852,3.888c0.162,0.209,0.355,0.392,0.574,0.537 c0.219,0.146,0.461,0.253,0.717,0.316c0.256,0.063,0.52,0.081,0.782,0.054c0.261-0.027,0.515-0.099,0.75-0.213 c0.235-0.114,0.446-0.268,0.624-0.456l2.882-2.882c0.189-0.189,0.343-0.406,0.457-0.643c0.114-0.237,0.187-0.491,0.214-0.753 c0.027-0.261,0.009-0.525-0.054-0.781c-0.063-0.256-0.17-0.498-0.316-0.717c-0.146-0.219-0.328-0.412-0.537-0.574L29.897,18.196z"/>
</svg> 