<svg xmlns="http://www.w3.org/2000/svg" viewBox="0 0 48 48">
  <path fill="#1976D2" d="M24,4C12.954,4,4,12.954,4,24s8.954,20,20,20s20-8.954,20-20S35.046,4,24,4z"/>
  <path fill="#FFF" d="M35.937,18.041c-0.46-0.46-1.102-0.811-1.787-0.811H13.85c-0.685,0-1.327,0.351-1.787,0.811 c-0.46,0.46-0.811,1.102-0.811,1.787v7.344c0,0.685,0.351,1.327,0.811,1.787c0.46,0.46,1.102,0.811,1.787,0.811h20.3 c0.685,0,1.327-0.351,1.787-0.811c0.46-0.46,0.811-1.102,0.811-1.787v-7.344C36.748,19.143,36.397,18.501,35.937,18.041z M34.937,27.172 c0,0.552-0.448,1-1,1H14.037c-0.552,0-1-0.448-1-1v-7.344c0-0.552,0.448-1,1-1h19.9c0.552,0,1,0.448,1,1V27.172z"/>
  <path fill="#FFF" d="M24,21.041c-1.657,0-3,1.343-3,3s1.343,3,3,3s3-1.343,3-3S25.657,21.041,24,21.041z M24,25.041 c-0.552,0-1-0.448-1-1s0.448-1,1-1s1,0.448,1,1S24.552,25.041,24,25.041z"/>
  <path fill="#FFF" d="M30,21.041c-0.552,0-1,0.448-1,1s0.448,1,1,1s1-0.448,1-1S30.552,21.041,30,21.041z"/>
  <path fill="#FFF" d="M18,21.041c-0.552,0-1,0.448-1,1s0.448,1,1,1s1-0.448,1-1S18.552,21.041,18,21.041z"/>
</svg> 